<?xml version="1.0" standalone="no"?>
<!DOCTYPE svg PUBLIC "-//W3C//DTD SVG 20010904//EN"
 "http://www.w3.org/TR/2001/REC-SVG-20010904/DTD/svg10.dtd">
<svg version="1.0" xmlns="http://www.w3.org/2000/svg"
 width="500.000000pt" height="500.000000pt" viewBox="0 0 500.000000 500.000000"
 preserveAspectRatio="xMidYMid meet">
<metadata>
Created by potrace 1.14, written by Peter Selinger 2001-2017
</metadata>
<g transform="translate(0.000000,500.000000) scale(0.100000,-0.100000)"
fill="#000000" stroke="none">
<path d="M2050 3065 l0 -1345 529 0 c576 0 678 7 845 55 183 53 312 132 450
275 259 269 379 627 363 1085 -19 543 -255 967 -642 1155 -224 109 -314 120
-1002 120 l-543 0 0 -1345z m1157 850 c43 -8 110 -31 150 -50 148 -73 272
-256 330 -490 26 -101 28 -125 28 -305 0 -180 -2 -204 -28 -305 -52 -208 -163
-391 -288 -474 -120 -80 -241 -101 -596 -101 l-233 0 0 870 0 870 279 0 c205
0 300 -4 358 -15z"/>
<path d="M1480 3966 c-74 -24 -208 -67 -297 -96 l-163 -51 0 -1515 0 -1514
995 0 995 0 0 280 0 280 -690 0 -690 0 0 1330 c0 732 -3 1330 -7 1330 -5 -1
-69 -20 -143 -44z"/>
</g>
</svg>
