<?xml version="1.0" standalone="no"?>
<!DOCTYPE svg PUBLIC "-//W3C//DTD SVG 20010904//EN"
 "http://www.w3.org/TR/2001/REC-SVG-20010904/DTD/svg10.dtd">
<svg version="1.0" xmlns="http://www.w3.org/2000/svg"
 width="700.000000pt" height="700.000000pt" viewBox="0 0 700.000000 700.000000"
 preserveAspectRatio="xMidYMid meet">
<metadata>
Created by potrace 1.14, written by Peter Selinger 2001-2017
</metadata>
<g transform="translate(0.000000,700.000000) scale(0.100000,-0.100000)"
fill="#000000" stroke="none">
<path d="M5466 4379 l-26 -20 0 -405 c0 -222 -4 -404 -8 -404 -5 0 -19 12 -33
26 -36 40 -162 120 -227 144 -137 52 -326 62 -482 25 -240 -57 -430 -259 -499
-531 -40 -160 -54 -425 -31 -614 38 -310 175 -540 384 -645 117 -58 179 -70
361 -69 146 0 166 2 236 26 98 35 179 82 257 153 l62 57 0 -80 c0 -64 4 -85
19 -103 19 -24 22 -24 196 -24 l177 0 24 28 24 28 0 1189 0 1188 -31 26 c-30
26 -32 26 -203 26 -160 0 -175 -2 -200 -21z m-264 -1021 c104 -48 186 -155
219 -288 22 -85 18 -416 -5 -500 -64 -234 -236 -348 -470 -310 -211 34 -309
186 -323 505 -15 343 69 539 260 607 80 29 242 21 319 -14z"/>
</g>
</svg>
