<svg width="24" height="24" viewBox="0 0 24 24" fill="none" xmlns="http://www.w3.org/2000/svg">
<path d="M2 21.2595L3.43495 15.924C2.2777 13.8456 1.91003 11.4202 2.39941 9.09294C2.88879 6.7657 4.20239 4.6927 6.09918 3.25434C7.99596 1.81597 10.3487 1.10873 12.7256 1.26239C15.1026 1.41605 17.3443 2.42031 19.0394 4.09087C20.7345 5.76144 21.7694 7.98626 21.9541 10.3571C22.1387 12.7279 21.4608 15.0857 20.0447 16.9978C18.6286 18.9099 16.5694 20.248 14.2448 20.7666C11.9202 21.2853 9.48625 20.9496 7.38955 19.8213L2 21.2595ZM7.64943 17.8247L7.98274 18.0221C9.50142 18.9208 11.2752 19.2927 13.0277 19.0798C14.7802 18.867 16.4129 18.0813 17.6715 16.8453C18.9301 15.6094 19.7437 13.9925 19.9857 12.2466C20.2277 10.5008 19.8844 8.72402 19.0093 7.19329C18.1342 5.66256 16.7765 4.46381 15.1478 3.78386C13.519 3.1039 11.7108 2.98094 10.0047 3.43412C8.29864 3.88731 6.79067 4.89119 5.71576 6.28932C4.64086 7.68746 4.05942 9.40131 4.06204 11.1638C4.06061 12.6252 4.46544 14.0583 5.23147 15.3036L5.4405 15.6476L4.63828 18.6256L7.64943 17.8247Z" fill="#071530"/>
<path fill-rule="evenodd" clip-rule="evenodd" d="M15.7394 12.5338C15.544 12.3765 15.3152 12.2657 15.0704 12.21C14.8257 12.1543 14.5714 12.1551 14.327 12.2123C13.9598 12.3646 13.7225 12.9399 13.4853 13.2275C13.4352 13.2965 13.3617 13.3449 13.2785 13.3635C13.1953 13.3822 13.1081 13.37 13.0333 13.3291C11.6889 12.8034 10.5621 11.8394 9.83574 10.5936C9.77379 10.5159 9.74447 10.4172 9.75395 10.3183C9.76344 10.2194 9.81098 10.1281 9.88658 10.0635C10.1512 9.80191 10.3455 9.47796 10.4515 9.12157C10.4751 8.72847 10.3849 8.3369 10.1917 7.99356C10.0423 7.51221 9.75804 7.08361 9.37249 6.75839C9.17363 6.6691 8.95314 6.63916 8.73761 6.67218C8.52209 6.70521 8.32074 6.79979 8.15786 6.94451C7.87509 7.18807 7.65064 7.49186 7.50105 7.83349C7.35146 8.17512 7.28053 8.54591 7.2935 8.91853C7.29437 9.12778 7.32093 9.33614 7.37259 9.53894C7.50377 10.0262 7.70551 10.4917 7.97143 10.9208C8.16328 11.2494 8.37261 11.5676 8.59851 11.8739C9.33268 12.8801 10.2556 13.7344 11.3159 14.3894C11.848 14.7222 12.4167 14.9929 13.0107 15.1959C13.6278 15.4752 14.3092 15.5824 14.9824 15.5061C15.3659 15.4482 15.7294 15.297 16.0407 15.0658C16.352 14.8347 16.6016 14.5308 16.7676 14.1807C16.8651 13.9692 16.8947 13.7328 16.8523 13.5039C16.7506 13.0358 16.1236 12.7594 15.7394 12.5338Z" fill="#071530"/>
</svg>
